<mxfile host="Electron" modified="2025-03-07T02:50:40.395Z" agent="Mozilla/5.0 (Windows NT 10.0; Win64; x64) AppleWebKit/537.36 (KHTML, like Gecko) draw.io/24.1.0 Chrome/120.0.6099.109 Electron/28.1.0 Safari/537.36" etag="7d1sd6QjDYvIssjfeYJB" version="24.1.0" type="device">
  <diagram name="Страница — 1" id="hp7vS3gpW0PIcEVraEkY">
    <mxGraphModel dx="2607" dy="1535" grid="1" gridSize="10" guides="1" tooltips="1" connect="1" arrows="1" fold="1" page="1" pageScale="1" pageWidth="827" pageHeight="1169" math="0" shadow="0">
      <root>
        <mxCell id="0" />
        <mxCell id="1" parent="0" />
        <mxCell id="TI2m-fu065s9IQ4XHAfz-1" value="Получение плана тренировки" style="swimlane;html=1;childLayout=stackLayout;startSize=20;rounded=0;shadow=0;comic=0;labelBackgroundColor=none;strokeWidth=1;fontFamily=Verdana;fontSize=12;align=center;" vertex="1" parent="1">
          <mxGeometry x="30" y="30" width="780" height="850" as="geometry">
            <mxRectangle x="40" y="10" width="320" height="30" as="alternateBounds" />
          </mxGeometry>
        </mxCell>
        <mxCell id="TI2m-fu065s9IQ4XHAfz-2" value="Клиент" style="swimlane;html=1;startSize=20;" vertex="1" parent="TI2m-fu065s9IQ4XHAfz-1">
          <mxGeometry y="20" width="250" height="830" as="geometry" />
        </mxCell>
        <mxCell id="TI2m-fu065s9IQ4XHAfz-3" style="edgeStyle=orthogonalEdgeStyle;rounded=0;orthogonalLoop=1;jettySize=auto;html=1;exitX=0.5;exitY=1;exitDx=0;exitDy=0;entryX=0.5;entryY=0;entryDx=0;entryDy=0;" edge="1" parent="TI2m-fu065s9IQ4XHAfz-2" source="TI2m-fu065s9IQ4XHAfz-4" target="TI2m-fu065s9IQ4XHAfz-5">
          <mxGeometry relative="1" as="geometry" />
        </mxCell>
        <mxCell id="TI2m-fu065s9IQ4XHAfz-4" value="" style="ellipse;fillColor=strokeColor;html=1;" vertex="1" parent="TI2m-fu065s9IQ4XHAfz-2">
          <mxGeometry x="111.88" y="30" width="20" height="20" as="geometry" />
        </mxCell>
        <mxCell id="TI2m-fu065s9IQ4XHAfz-5" value="Авторизироваться" style="rounded=1;whiteSpace=wrap;html=1;shadow=0;comic=0;labelBackgroundColor=none;strokeWidth=1;fontFamily=Verdana;fontSize=12;align=center;arcSize=50;" vertex="1" parent="TI2m-fu065s9IQ4XHAfz-2">
          <mxGeometry x="40.01" y="70" width="163.75" height="30" as="geometry" />
        </mxCell>
        <mxCell id="TI2m-fu065s9IQ4XHAfz-6" value="Неправильные данные авторизации" style="text;html=1;align=left;verticalAlign=middle;whiteSpace=wrap;rounded=0;" vertex="1" parent="TI2m-fu065s9IQ4XHAfz-2">
          <mxGeometry x="30" y="150" width="210" height="30" as="geometry" />
        </mxCell>
        <mxCell id="TI2m-fu065s9IQ4XHAfz-8" style="edgeStyle=orthogonalEdgeStyle;rounded=0;orthogonalLoop=1;jettySize=auto;html=1;exitX=0.5;exitY=1;exitDx=0;exitDy=0;entryX=0.5;entryY=0;entryDx=0;entryDy=0;" edge="1" parent="TI2m-fu065s9IQ4XHAfz-2" source="TI2m-fu065s9IQ4XHAfz-9" target="TI2m-fu065s9IQ4XHAfz-10">
          <mxGeometry relative="1" as="geometry" />
        </mxCell>
        <mxCell id="TI2m-fu065s9IQ4XHAfz-9" value="&lt;span style=&quot;font-family: Helvetica;&quot;&gt;Посмотреть план тренировок&lt;/span&gt;" style="rounded=1;whiteSpace=wrap;html=1;shadow=0;comic=0;labelBackgroundColor=none;strokeWidth=1;fontFamily=Verdana;fontSize=12;align=center;arcSize=50;" vertex="1" parent="TI2m-fu065s9IQ4XHAfz-2">
          <mxGeometry x="36.87999999999999" y="750" width="170" height="30" as="geometry" />
        </mxCell>
        <mxCell id="TI2m-fu065s9IQ4XHAfz-10" value="" style="ellipse;html=1;shape=endState;fillColor=strokeColor;" vertex="1" parent="TI2m-fu065s9IQ4XHAfz-2">
          <mxGeometry x="111.88" y="800" width="20" height="20" as="geometry" />
        </mxCell>
        <mxCell id="TI2m-fu065s9IQ4XHAfz-11" value="Система" style="swimlane;html=1;startSize=20;" vertex="1" parent="TI2m-fu065s9IQ4XHAfz-1">
          <mxGeometry x="250" y="20" width="280" height="830" as="geometry" />
        </mxCell>
        <mxCell id="TI2m-fu065s9IQ4XHAfz-12" style="edgeStyle=orthogonalEdgeStyle;rounded=0;orthogonalLoop=1;jettySize=auto;html=1;" edge="1" parent="TI2m-fu065s9IQ4XHAfz-11" source="TI2m-fu065s9IQ4XHAfz-13" target="TI2m-fu065s9IQ4XHAfz-17">
          <mxGeometry relative="1" as="geometry" />
        </mxCell>
        <mxCell id="TI2m-fu065s9IQ4XHAfz-13" value="" style="rhombus;whiteSpace=wrap;html=1;" vertex="1" parent="TI2m-fu065s9IQ4XHAfz-11">
          <mxGeometry x="95.75" y="160" width="70" height="30" as="geometry" />
        </mxCell>
        <mxCell id="TI2m-fu065s9IQ4XHAfz-14" style="edgeStyle=orthogonalEdgeStyle;rounded=0;orthogonalLoop=1;jettySize=auto;html=1;entryX=0.5;entryY=0;entryDx=0;entryDy=0;" edge="1" parent="TI2m-fu065s9IQ4XHAfz-11" source="TI2m-fu065s9IQ4XHAfz-15" target="TI2m-fu065s9IQ4XHAfz-13">
          <mxGeometry relative="1" as="geometry" />
        </mxCell>
        <mxCell id="TI2m-fu065s9IQ4XHAfz-15" value="Проверка телефона и пароля" style="rounded=1;whiteSpace=wrap;html=1;shadow=0;comic=0;labelBackgroundColor=none;strokeWidth=1;fontFamily=Verdana;fontSize=12;align=center;arcSize=50;" vertex="1" parent="TI2m-fu065s9IQ4XHAfz-11">
          <mxGeometry x="51.5" y="110" width="158.5" height="30" as="geometry" />
        </mxCell>
        <mxCell id="TI2m-fu065s9IQ4XHAfz-16" value="Корректные данные авторизации" style="text;html=1;align=left;verticalAlign=middle;whiteSpace=wrap;rounded=0;" vertex="1" parent="TI2m-fu065s9IQ4XHAfz-11">
          <mxGeometry x="40" y="190" width="240" height="30" as="geometry" />
        </mxCell>
        <mxCell id="TI2m-fu065s9IQ4XHAfz-19" value="Отобразить&amp;nbsp;список заявок&lt;div&gt;с результатами&lt;/div&gt;" style="rounded=1;whiteSpace=wrap;html=1;shadow=0;comic=0;labelBackgroundColor=none;strokeWidth=1;fontFamily=Verdana;fontSize=12;align=center;arcSize=50;" vertex="1" parent="TI2m-fu065s9IQ4XHAfz-11">
          <mxGeometry x="42" y="350" width="185" height="30" as="geometry" />
        </mxCell>
        <mxCell id="TI2m-fu065s9IQ4XHAfz-20" style="edgeStyle=orthogonalEdgeStyle;rounded=0;orthogonalLoop=1;jettySize=auto;html=1;exitX=0.25;exitY=1;exitDx=0;exitDy=0;entryX=0.25;entryY=0;entryDx=0;entryDy=0;" edge="1" parent="TI2m-fu065s9IQ4XHAfz-11" source="TI2m-fu065s9IQ4XHAfz-21" target="TI2m-fu065s9IQ4XHAfz-19">
          <mxGeometry relative="1" as="geometry" />
        </mxCell>
        <mxCell id="TI2m-fu065s9IQ4XHAfz-22" value="Обновить список заявок&lt;div&gt;с результатами&lt;/div&gt;" style="rounded=1;whiteSpace=wrap;html=1;shadow=0;comic=0;labelBackgroundColor=none;strokeWidth=1;fontFamily=Verdana;fontSize=12;align=center;arcSize=50;" vertex="1" parent="TI2m-fu065s9IQ4XHAfz-11">
          <mxGeometry x="42" y="510" width="185" height="30" as="geometry" />
        </mxCell>
        <mxCell id="TI2m-fu065s9IQ4XHAfz-23" style="edgeStyle=orthogonalEdgeStyle;rounded=0;orthogonalLoop=1;jettySize=auto;html=1;exitX=0.25;exitY=1;exitDx=0;exitDy=0;entryX=0.75;entryY=0;entryDx=0;entryDy=0;" edge="1" parent="TI2m-fu065s9IQ4XHAfz-11" source="TI2m-fu065s9IQ4XHAfz-25" target="TI2m-fu065s9IQ4XHAfz-26">
          <mxGeometry relative="1" as="geometry" />
        </mxCell>
        <mxCell id="TI2m-fu065s9IQ4XHAfz-24" style="edgeStyle=orthogonalEdgeStyle;rounded=0;orthogonalLoop=1;jettySize=auto;html=1;exitX=0.75;exitY=1;exitDx=0;exitDy=0;entryX=0.25;entryY=0;entryDx=0;entryDy=0;" edge="1" parent="TI2m-fu065s9IQ4XHAfz-11" source="TI2m-fu065s9IQ4XHAfz-25" target="TI2m-fu065s9IQ4XHAfz-27">
          <mxGeometry relative="1" as="geometry" />
        </mxCell>
        <mxCell id="TI2m-fu065s9IQ4XHAfz-25" value="" style="whiteSpace=wrap;html=1;rounded=0;shadow=0;comic=0;labelBackgroundColor=none;strokeWidth=1;fillColor=#000000;fontFamily=Verdana;fontSize=12;align=center;rotation=0;" vertex="1" parent="TI2m-fu065s9IQ4XHAfz-11">
          <mxGeometry x="66.5" y="630" width="147" height="10" as="geometry" />
        </mxCell>
        <mxCell id="TI2m-fu065s9IQ4XHAfz-26" value="Отобразить план тренировок" style="rounded=1;whiteSpace=wrap;html=1;shadow=0;comic=0;labelBackgroundColor=none;strokeWidth=1;fontFamily=Verdana;fontSize=12;align=center;arcSize=22;" vertex="1" parent="TI2m-fu065s9IQ4XHAfz-11">
          <mxGeometry x="10" y="670" width="120" height="60" as="geometry" />
        </mxCell>
        <mxCell id="TI2m-fu065s9IQ4XHAfz-27" value="Отобразить &lt;font face=&quot;Verdana&quot;&gt;перечень&lt;/font&gt;&lt;div&gt;&lt;span style=&quot;text-align: justify; background-color: transparent; color: light-dark(rgb(0, 0, 0), rgb(255, 255, 255));&quot;&gt;индивидуальных занятий&lt;/span&gt;&lt;/div&gt;" style="rounded=1;whiteSpace=wrap;html=1;shadow=0;comic=0;labelBackgroundColor=none;strokeWidth=1;fontFamily=Verdana;fontSize=12;align=center;arcSize=21;" vertex="1" parent="TI2m-fu065s9IQ4XHAfz-11">
          <mxGeometry x="145" y="670" width="125" height="70" as="geometry" />
        </mxCell>
        <mxCell id="TI2m-fu065s9IQ4XHAfz-7" value="Выбрать тренера и отправить заявку&amp;nbsp;" style="rounded=1;whiteSpace=wrap;html=1;shadow=0;comic=0;labelBackgroundColor=none;strokeWidth=1;fontFamily=Verdana;fontSize=12;align=center;arcSize=50;" vertex="1" parent="TI2m-fu065s9IQ4XHAfz-11">
          <mxGeometry x="-209.99" y="260" width="170" height="30" as="geometry" />
        </mxCell>
        <mxCell id="TI2m-fu065s9IQ4XHAfz-17" value="Отобразить список тренеров" style="rounded=1;whiteSpace=wrap;html=1;shadow=0;comic=0;labelBackgroundColor=none;strokeWidth=1;fontFamily=Verdana;fontSize=12;align=center;arcSize=50;" vertex="1" parent="TI2m-fu065s9IQ4XHAfz-11">
          <mxGeometry x="45.75" y="220" width="170" height="30" as="geometry" />
        </mxCell>
        <mxCell id="TI2m-fu065s9IQ4XHAfz-18" style="edgeStyle=orthogonalEdgeStyle;rounded=0;orthogonalLoop=1;jettySize=auto;html=1;exitX=0.5;exitY=1;exitDx=0;exitDy=0;" edge="1" parent="TI2m-fu065s9IQ4XHAfz-11">
          <mxGeometry relative="1" as="geometry">
            <mxPoint x="160" y="210" as="sourcePoint" />
            <mxPoint x="160" y="210" as="targetPoint" />
          </mxGeometry>
        </mxCell>
        <mxCell id="TI2m-fu065s9IQ4XHAfz-21" value="" style="whiteSpace=wrap;html=1;rounded=0;shadow=0;comic=0;labelBackgroundColor=none;strokeWidth=1;fillColor=#000000;fontFamily=Verdana;fontSize=12;align=center;rotation=0;" vertex="1" parent="TI2m-fu065s9IQ4XHAfz-11">
          <mxGeometry x="51.5" y="300" width="147" height="10" as="geometry" />
        </mxCell>
        <mxCell id="TI2m-fu065s9IQ4XHAfz-30" style="edgeStyle=orthogonalEdgeStyle;rounded=0;orthogonalLoop=1;jettySize=auto;html=1;entryX=0.5;entryY=0;entryDx=0;entryDy=0;" edge="1" parent="TI2m-fu065s9IQ4XHAfz-11" source="TI2m-fu065s9IQ4XHAfz-17" target="TI2m-fu065s9IQ4XHAfz-7">
          <mxGeometry relative="1" as="geometry" />
        </mxCell>
        <mxCell id="TI2m-fu065s9IQ4XHAfz-31" style="edgeStyle=orthogonalEdgeStyle;rounded=0;orthogonalLoop=1;jettySize=auto;html=1;entryX=0.5;entryY=0;entryDx=0;entryDy=0;" edge="1" parent="TI2m-fu065s9IQ4XHAfz-11" source="TI2m-fu065s9IQ4XHAfz-7" target="TI2m-fu065s9IQ4XHAfz-21">
          <mxGeometry relative="1" as="geometry" />
        </mxCell>
        <mxCell id="TI2m-fu065s9IQ4XHAfz-28" style="edgeStyle=orthogonalEdgeStyle;rounded=0;orthogonalLoop=1;jettySize=auto;html=1;entryX=0.5;entryY=0;entryDx=0;entryDy=0;" edge="1" parent="TI2m-fu065s9IQ4XHAfz-1" source="TI2m-fu065s9IQ4XHAfz-5" target="TI2m-fu065s9IQ4XHAfz-15">
          <mxGeometry relative="1" as="geometry" />
        </mxCell>
        <mxCell id="TI2m-fu065s9IQ4XHAfz-29" style="edgeStyle=orthogonalEdgeStyle;rounded=0;orthogonalLoop=1;jettySize=auto;html=1;exitX=0;exitY=0.5;exitDx=0;exitDy=0;entryX=0;entryY=0.5;entryDx=0;entryDy=0;" edge="1" parent="TI2m-fu065s9IQ4XHAfz-1" source="TI2m-fu065s9IQ4XHAfz-13" target="TI2m-fu065s9IQ4XHAfz-5">
          <mxGeometry relative="1" as="geometry">
            <mxPoint x="210" y="215" as="targetPoint" />
          </mxGeometry>
        </mxCell>
        <mxCell id="TI2m-fu065s9IQ4XHAfz-32" style="edgeStyle=orthogonalEdgeStyle;rounded=0;orthogonalLoop=1;jettySize=auto;html=1;exitX=0.75;exitY=1;exitDx=0;exitDy=0;entryX=0.5;entryY=0;entryDx=0;entryDy=0;" edge="1" parent="TI2m-fu065s9IQ4XHAfz-1" source="TI2m-fu065s9IQ4XHAfz-21" target="TI2m-fu065s9IQ4XHAfz-36">
          <mxGeometry relative="1" as="geometry" />
        </mxCell>
        <mxCell id="TI2m-fu065s9IQ4XHAfz-33" value="Тренер" style="swimlane;html=1;startSize=20;" vertex="1" parent="TI2m-fu065s9IQ4XHAfz-1">
          <mxGeometry x="530" y="20" width="250" height="830" as="geometry" />
        </mxCell>
        <mxCell id="TI2m-fu065s9IQ4XHAfz-34" style="edgeStyle=orthogonalEdgeStyle;rounded=0;orthogonalLoop=1;jettySize=auto;html=1;exitX=1;exitY=0.5;exitDx=0;exitDy=0;entryX=0.5;entryY=0;entryDx=0;entryDy=0;" edge="1" parent="TI2m-fu065s9IQ4XHAfz-33" source="TI2m-fu065s9IQ4XHAfz-35" target="TI2m-fu065s9IQ4XHAfz-40">
          <mxGeometry relative="1" as="geometry">
            <mxPoint x="216.5" y="549" as="targetPoint" />
            <Array as="points">
              <mxPoint x="220" y="425" />
              <mxPoint x="220" y="510" />
              <mxPoint x="140" y="510" />
            </Array>
          </mxGeometry>
        </mxCell>
        <mxCell id="TI2m-fu065s9IQ4XHAfz-35" value="" style="rhombus;whiteSpace=wrap;html=1;" vertex="1" parent="TI2m-fu065s9IQ4XHAfz-33">
          <mxGeometry x="95.01" y="410" width="70" height="30" as="geometry" />
        </mxCell>
        <mxCell id="TI2m-fu065s9IQ4XHAfz-36" value="Посмотреть новые заявки" style="rounded=1;whiteSpace=wrap;html=1;shadow=0;comic=0;labelBackgroundColor=none;strokeWidth=1;fontFamily=Verdana;fontSize=12;align=center;arcSize=50;" vertex="1" parent="TI2m-fu065s9IQ4XHAfz-33">
          <mxGeometry x="35.01" y="350" width="190" height="30" as="geometry" />
        </mxCell>
        <mxCell id="TI2m-fu065s9IQ4XHAfz-37" style="edgeStyle=orthogonalEdgeStyle;rounded=0;orthogonalLoop=1;jettySize=auto;html=1;exitX=0.5;exitY=1;exitDx=0;exitDy=0;entryX=0.5;entryY=0;entryDx=0;entryDy=0;" edge="1" parent="TI2m-fu065s9IQ4XHAfz-33" source="TI2m-fu065s9IQ4XHAfz-36" target="TI2m-fu065s9IQ4XHAfz-35">
          <mxGeometry relative="1" as="geometry" />
        </mxCell>
        <mxCell id="TI2m-fu065s9IQ4XHAfz-38" value="Отклонить заявку" style="text;html=1;align=left;verticalAlign=middle;whiteSpace=wrap;rounded=0;" vertex="1" parent="TI2m-fu065s9IQ4XHAfz-33">
          <mxGeometry x="40" y="426" width="70" height="30" as="geometry" />
        </mxCell>
        <mxCell id="TI2m-fu065s9IQ4XHAfz-39" value="&lt;span style=&quot;font-family: Helvetica;&quot;&gt;Указать причину отклонения заявки&lt;/span&gt;" style="rounded=1;whiteSpace=wrap;html=1;shadow=0;comic=0;labelBackgroundColor=none;strokeWidth=1;fontFamily=Verdana;fontSize=12;align=center;arcSize=27;" vertex="1" parent="TI2m-fu065s9IQ4XHAfz-33">
          <mxGeometry x="10" y="470" width="120" height="40" as="geometry" />
        </mxCell>
        <mxCell id="TI2m-fu065s9IQ4XHAfz-40" value="&lt;span style=&quot;font-family: Helvetica;&quot;&gt;Выставить план&amp;nbsp;&lt;/span&gt;&lt;span style=&quot;color: light-dark(rgb(0, 0, 0), rgb(255, 255, 255)); font-family: Helvetica; background-color: transparent;&quot;&gt;индивидуальных занятий для клиента&lt;/span&gt;" style="rounded=1;whiteSpace=wrap;html=1;shadow=0;comic=0;labelBackgroundColor=none;strokeWidth=1;fontFamily=Verdana;fontSize=12;align=center;arcSize=25;" vertex="1" parent="TI2m-fu065s9IQ4XHAfz-33">
          <mxGeometry x="40" y="530" width="200" height="60" as="geometry" />
        </mxCell>
        <mxCell id="TI2m-fu065s9IQ4XHAfz-41" style="edgeStyle=orthogonalEdgeStyle;rounded=0;orthogonalLoop=1;jettySize=auto;html=1;exitX=0;exitY=0.5;exitDx=0;exitDy=0;entryX=0.25;entryY=0;entryDx=0;entryDy=0;" edge="1" parent="TI2m-fu065s9IQ4XHAfz-33" source="TI2m-fu065s9IQ4XHAfz-35" target="TI2m-fu065s9IQ4XHAfz-39">
          <mxGeometry relative="1" as="geometry">
            <mxPoint x="-30" y="510" as="targetPoint" />
          </mxGeometry>
        </mxCell>
        <mxCell id="TI2m-fu065s9IQ4XHAfz-42" value="Принять заявку" style="text;html=1;align=left;verticalAlign=middle;whiteSpace=wrap;rounded=0;" vertex="1" parent="TI2m-fu065s9IQ4XHAfz-33">
          <mxGeometry x="167" y="428" width="60" height="30" as="geometry" />
        </mxCell>
        <mxCell id="TI2m-fu065s9IQ4XHAfz-43" style="edgeStyle=orthogonalEdgeStyle;rounded=0;orthogonalLoop=1;jettySize=auto;html=1;entryX=0.5;entryY=0;entryDx=0;entryDy=0;" edge="1" parent="TI2m-fu065s9IQ4XHAfz-1" source="TI2m-fu065s9IQ4XHAfz-39" target="TI2m-fu065s9IQ4XHAfz-22">
          <mxGeometry relative="1" as="geometry" />
        </mxCell>
        <mxCell id="TI2m-fu065s9IQ4XHAfz-44" style="edgeStyle=orthogonalEdgeStyle;rounded=0;orthogonalLoop=1;jettySize=auto;html=1;entryX=0.5;entryY=0;entryDx=0;entryDy=0;" edge="1" parent="TI2m-fu065s9IQ4XHAfz-1" source="TI2m-fu065s9IQ4XHAfz-26" target="TI2m-fu065s9IQ4XHAfz-9">
          <mxGeometry relative="1" as="geometry">
            <Array as="points">
              <mxPoint x="320" y="760" />
              <mxPoint x="122" y="760" />
            </Array>
          </mxGeometry>
        </mxCell>
        <mxCell id="TI2m-fu065s9IQ4XHAfz-45" style="edgeStyle=orthogonalEdgeStyle;rounded=0;orthogonalLoop=1;jettySize=auto;html=1;exitX=0.5;exitY=1;exitDx=0;exitDy=0;entryX=0.5;entryY=0;entryDx=0;entryDy=0;" edge="1" parent="TI2m-fu065s9IQ4XHAfz-1" source="TI2m-fu065s9IQ4XHAfz-40" target="TI2m-fu065s9IQ4XHAfz-25">
          <mxGeometry relative="1" as="geometry" />
        </mxCell>
      </root>
    </mxGraphModel>
  </diagram>
</mxfile>
